<svg xmlns="http://www.w3.org/2000/svg" xmlns:xlink="http://www.w3.org/1999/xlink" viewBox="0 0 880 653">
  <defs>
    <style>
      .cls-1 {
        fill: #efefef;
        opacity: 0.5;
      }

      .cls-10, .cls-2 {
        fill: #181a1e;
      }

      .cls-2 {
        font-size: 32px;
        font-family: OpenSans-Light, Open Sans;
        font-weight: 300;
      }

      .cls-12, .cls-3, .cls-4 {
        fill: #ffd100;
      }

      .cls-3, .cls-4, .cls-5 {
        opacity: 0;
      }

      .cls-4 {
        font-size: 8px;
      }

      .cls-10, .cls-4, .cls-6 {
        font-family: OpenSans, Open Sans;
      }

      .cls-5, .cls-7 {
        fill: #ff5340;
      }

      .cls-6 {
        fill: #9ea3ad;
      }

      .cls-10, .cls-6, .cls-8 {
        font-size: 12px;
      }

      .cls-8, .cls-9 {
        fill: #fff;
      }

      .cls-8 {
        font-family: Roboto-Bold, Roboto;
        font-weight: 700;
      }

      .cls-11 {
        fill: #dee0e4;
      }

      .cls-13 {
        fill: #31dc94;
      }

      .cls-14 {
        fill: none;
      }

      .cls-15 {
        fill: url(#linear-gradient);
      }
    </style>
    <linearGradient id="linear-gradient" x1="0.5" x2="0.5" y2="1" gradientUnits="objectBoundingBox">
      <stop offset="0" stop-color="#fff"/>
      <stop offset="1" stop-color="#f3f3f3"/>
    </linearGradient>
  </defs>
  <g id="Group_3292" data-name="Group 3292" transform="translate(0 -2262)">
    <g id="Group_3290" data-name="Group 3290" transform="translate(0 1359)">
      <g id="Group_3286" data-name="Group 3286" transform="translate(-95)">
        <g id="Group_3283" data-name="Group 3283" transform="translate(0 -49)">
          <g id="Group_3289" data-name="Group 3289">
            <path id="Path_11070" data-name="Path 11070" class="cls-1" d="M0,0H880V653H0Z" transform="translate(95 952)"/>
            <text id="Tabs" class="cls-2" transform="translate(135 1026)"><tspan x="0" y="0">Tabs</tspan></text>
          </g>
        </g>
      </g>
      <rect id="Rectangle_9167" data-name="Rectangle 9167" class="cls-3" width="15" height="29" transform="translate(119 1091)"/>
      <text id="_15px" data-name="15px" class="cls-4" transform="translate(117 1129)"><tspan x="0" y="0">15px</tspan></text>
      <rect id="Rectangle_9168" data-name="Rectangle 9168" class="cls-5" width="15" height="29" transform="translate(134 1091)"/>
      <g id="Group_3291" data-name="Group 3291" transform="translate(-69 -75)">
        <g id="Group_3278" data-name="Group 3278" transform="translate(109 1120.444)">
          <g id="Group_3255" data-name="Group 3255" transform="translate(200.104 22.111)">
            <text id="VOTRE_ENSEIGNE" data-name="VOTRE ENSEIGNE" class="cls-6" transform="translate(0 13)"><tspan x="0" y="0">VOTRE ENSEIGNE</tspan></text>
          </g>
          <text id="VOS_DOCUMENTS" data-name="VOS DOCUMENTS" class="cls-6" transform="translate(382.519 35.111)"><tspan x="0" y="0">VOS DOCUMENTS</tspan></text>
          <path id="Path_11060" data-name="Path 11060" class="cls-7" d="M11.055,0A11.055,11.055,0,1,1,0,11.055,11.055,11.055,0,0,1,11.055,0Z" transform="translate(501.918 21.005)"/>
          <text id="_2" data-name="2" class="cls-8" transform="translate(509.657 35.322)"><tspan x="0" y="0">2</tspan></text>
          <path id="Path_11061" data-name="Path 11061" class="cls-7" d="M11.055,0A11.055,11.055,0,1,1,0,11.055,11.055,11.055,0,0,1,11.055,0Z" transform="translate(316.186 21.005)"/>
          <text id="_1" data-name="1" class="cls-8" transform="translate(323.925 35.322)"><tspan x="0" y="0">1</tspan></text>
          <text id="VOS_ÉLÉMENTS_TECHNIQUES" data-name="VOS ÉLÉMENTS TECHNIQUES" class="cls-6" transform="translate(568.251 35.111)"><tspan x="0" y="0">VOS ÉLÉMENTS TECHNIQUES</tspan></text>
          <g id="Group_3256" data-name="Group 3256" transform="translate(756.194 21.005)">
            <path id="Path_10438" data-name="Path 10438" class="cls-7" d="M11.055,0A11.055,11.055,0,1,1,0,11.055,11.055,11.055,0,0,1,11.055,0Z" transform="translate(0 0)"/>
            <text id="_4" data-name="4" class="cls-8" transform="translate(7.739 14.317)"><tspan x="0" y="0">4</tspan></text>
          </g>
          <rect id="Rectangle_9148" data-name="Rectangle 9148" class="cls-9" width="63.016" height="176.887" transform="translate(177.993) rotate(90)"/>
          <g id="Group_3257" data-name="Group 3257" transform="translate(23.216 22.111)">
            <text id="VOTRE_FORMULE" data-name="VOTRE FORMULE" class="cls-10" transform="translate(0 13)"><tspan x="0" y="0">VOTRE FORMULE</tspan></text>
          </g>
          <rect id="Rectangle_9149" data-name="Rectangle 9149" class="cls-11" width="1.106" height="800.406" transform="translate(800.406 63.016) rotate(90)"/>
          <rect id="Rectangle_9150" data-name="Rectangle 9150" class="cls-12" width="2.211" height="176.887" transform="translate(177.993 60.805) rotate(90)"/>
          <path id="Path_11062" data-name="Path 11062" class="cls-7" d="M11.055,0A11.055,11.055,0,1,1,0,11.055,11.055,11.055,0,0,1,11.055,0Z" transform="translate(133.771 21.005)"/>
          <text id="_3" data-name="3" class="cls-8" transform="translate(141.51 35.322)"><tspan x="0" y="0">3</tspan></text>
          <rect id="Rectangle_9151" data-name="Rectangle 9151" class="cls-9" width="63.016" height="254.276" transform="translate(800.416 119.399) rotate(90)"/>
          <g id="Group_3258" data-name="Group 3258" transform="translate(200.104 141.51)">
            <text id="VOTRE_ENSEIGNE-2" data-name="VOTRE ENSEIGNE" class="cls-6" transform="translate(0 13)"><tspan x="0" y="0">VOTRE ENSEIGNE</tspan></text>
          </g>
          <text id="VOS_DOCUMENTS-2" data-name="VOS DOCUMENTS" class="cls-6" transform="translate(382.519 154.51)"><tspan x="0" y="0">VOS DOCUMENTS</tspan></text>
          <text id="_1-2" data-name="1" class="cls-8" transform="translate(323.925 154.721)"><tspan x="0" y="0">1</tspan></text>
          <text id="VOS_ÉLÉMENTS_TECHNIQUES-2" data-name="VOS ÉLÉMENTS TECHNIQUES" class="cls-10" transform="translate(568.251 154.51)"><tspan x="0" y="0">VOS ÉLÉMENTS TECHNIQUES</tspan></text>
          <g id="Group_3259" data-name="Group 3259" transform="translate(756.194 140.404)">
            <path id="Path_10438-2" data-name="Path 10438" class="cls-7" d="M11.055,0A11.055,11.055,0,1,1,0,11.055,11.055,11.055,0,0,1,11.055,0Z" transform="translate(0 0)"/>
            <text id="_1-3" data-name="1" class="cls-8" transform="translate(7.739 14.317)"><tspan x="0" y="0">1</tspan></text>
          </g>
          <g id="Group_3260" data-name="Group 3260" transform="translate(23.216 141.51)">
            <text id="VOTRE_FORMULE-2" data-name="VOTRE FORMULE" class="cls-6" transform="translate(0 13)"><tspan x="0" y="0">VOTRE FORMULE</tspan></text>
          </g>
          <rect id="Rectangle_9152" data-name="Rectangle 9152" class="cls-11" width="1.106" height="800.406" transform="translate(800.406 181.707) rotate(90)"/>
          <rect id="Rectangle_9153" data-name="Rectangle 9153" class="cls-12" width="2.211" height="254.276" transform="translate(800.416 180.785) rotate(90)"/>
          <g id="Group_3261" data-name="Group 3261" transform="translate(501.918 140.404)">
            <path id="Path_10899" data-name="Path 10899" class="cls-7" d="M11.055,0A11.055,11.055,0,1,1,0,11.055,11.055,11.055,0,0,1,11.055,0Z" transform="translate(0)"/>
            <text id="_1-4" data-name="1" class="cls-8" transform="translate(7.739 14.317)"><tspan x="0" y="0">1</tspan></text>
            <g id="Group_3065" data-name="Group 3065" transform="translate(0)">
              <g id="Group_2417" data-name="Group 2417" transform="translate(0)">
                <g id="Group_2406" data-name="Group 2406">
                  <path id="Path_10436" data-name="Path 10436" class="cls-13" d="M11.055,0A11.055,11.055,0,1,1,0,11.055,11.055,11.055,0,0,1,11.055,0Z"/>
                </g>
                <g id="baseline-check-24px_1_" data-name="baseline-check-24px (1)" transform="translate(3.317 3.317)">
                  <path id="Path_10658" data-name="Path 10658" class="cls-14" d="M0,0H15.478V15.478H0Z"/>
                  <path id="Path_10659" data-name="Path 10659" class="cls-15" d="M7.015,12.413,4.326,9.724l-.916.909,3.605,3.605L14.754,6.5l-.909-.909Z" transform="translate(-1.211 -1.985)"/>
                </g>
              </g>
            </g>
          </g>
          <g id="Group_3262" data-name="Group 3262" transform="translate(316.186 140.404)">
            <g id="Group_2417-2" data-name="Group 2417" transform="translate(0)">
              <g id="Group_2406-2" data-name="Group 2406" transform="translate(0)">
                <path id="Path_10436-2" data-name="Path 10436" class="cls-13" d="M11.055,0A11.055,11.055,0,1,1,0,11.055,11.055,11.055,0,0,1,11.055,0Z"/>
              </g>
              <g id="baseline-check-24px_1_2" data-name="baseline-check-24px (1)" transform="translate(3.317 3.317)">
                <path id="Path_10658-2" data-name="Path 10658" class="cls-14" d="M0,0H15.478V15.478H0Z"/>
                <path id="Path_10659-2" data-name="Path 10659" class="cls-15" d="M7.015,12.413,4.326,9.724l-.916.909,3.605,3.605L14.754,6.5l-.909-.909Z" transform="translate(-1.211 -1.985)"/>
              </g>
            </g>
          </g>
          <g id="Group_3263" data-name="Group 3263" transform="translate(133.771 140.404)">
            <g id="Group_2417-3" data-name="Group 2417" transform="translate(0)">
              <g id="Group_2406-3" data-name="Group 2406" transform="translate(0)">
                <path id="Path_10436-3" data-name="Path 10436" class="cls-13" d="M11.055,0A11.055,11.055,0,1,1,0,11.055,11.055,11.055,0,0,1,11.055,0Z"/>
              </g>
              <g id="baseline-check-24px_1_3" data-name="baseline-check-24px (1)" transform="translate(3.317 3.317)">
                <path id="Path_10658-3" data-name="Path 10658" class="cls-14" d="M0,0H15.478V15.478H0Z"/>
                <path id="Path_10659-3" data-name="Path 10659" class="cls-15" d="M7.015,12.413,4.326,9.724l-.916.909,3.605,3.605L14.754,6.5l-.909-.909Z" transform="translate(-1.211 -1.985)"/>
              </g>
            </g>
          </g>
          <rect id="Rectangle_9154" data-name="Rectangle 9154" class="cls-9" width="63.016" height="254.276" transform="translate(800.416 237.693) rotate(90)"/>
          <g id="Group_3264" data-name="Group 3264" transform="translate(200.104 259.804)">
            <text id="VOTRE_ENSEIGNE-3" data-name="VOTRE ENSEIGNE" class="cls-6" transform="translate(0 13)"><tspan x="0" y="0">VOTRE ENSEIGNE</tspan></text>
          </g>
          <text id="VOS_DOCUMENTS-3" data-name="VOS DOCUMENTS" class="cls-6" transform="translate(382.519 272.803)"><tspan x="0" y="0">VOS DOCUMENTS</tspan></text>
          <path id="Path_11063" data-name="Path 11063" class="cls-7" d="M11.055,0A11.055,11.055,0,1,1,0,11.055,11.055,11.055,0,0,1,11.055,0Z" transform="translate(501.918 258.698)"/>
          <text id="_1-5" data-name="1" class="cls-8" transform="translate(509.657 273.015)"><tspan x="0" y="0">1</tspan></text>
          <text id="_1-6" data-name="1" class="cls-8" transform="translate(323.925 273.015)"><tspan x="0" y="0">1</tspan></text>
          <text id="VOS_ÉLÉMENTS_TECHNIQUES-3" data-name="VOS ÉLÉMENTS TECHNIQUES" class="cls-10" transform="translate(568.251 272.803)"><tspan x="0" y="0">VOS ÉLÉMENTS TECHNIQUES</tspan></text>
          <g id="Group_3265" data-name="Group 3265" transform="translate(23.216 259.803)">
            <text id="VOTRE_FORMULE-3" data-name="VOTRE FORMULE" class="cls-6" transform="translate(0 13)"><tspan x="0" y="0">VOTRE FORMULE</tspan></text>
          </g>
          <rect id="Rectangle_9155" data-name="Rectangle 9155" class="cls-11" width="1.106" height="800.406" transform="translate(800.406 299.603) rotate(90)"/>
          <rect id="Rectangle_9156" data-name="Rectangle 9156" class="cls-12" width="2.211" height="254.276" transform="translate(800.416 298.498) rotate(90)"/>
          <g id="Group_3266" data-name="Group 3266" transform="translate(501.918 258.698)">
            <g id="Group_2417-4" data-name="Group 2417" transform="translate(0)">
              <g id="Group_2406-4" data-name="Group 2406" transform="translate(0)">
                <path id="Path_10436-4" data-name="Path 10436" class="cls-13" d="M11.055,0A11.055,11.055,0,1,1,0,11.055,11.055,11.055,0,0,1,11.055,0Z"/>
              </g>
              <g id="baseline-check-24px_1_4" data-name="baseline-check-24px (1)" transform="translate(3.317 3.317)">
                <path id="Path_10658-4" data-name="Path 10658" class="cls-14" d="M0,0H15.478V15.478H0Z"/>
                <path id="Path_10659-4" data-name="Path 10659" class="cls-15" d="M7.015,12.413,4.326,9.724l-.916.909,3.605,3.605L14.754,6.5l-.909-.909Z" transform="translate(-1.211 -1.985)"/>
              </g>
            </g>
          </g>
          <g id="Group_3267" data-name="Group 3267" transform="translate(316.186 258.698)">
            <g id="Group_2417-5" data-name="Group 2417" transform="translate(0)">
              <g id="Group_2406-5" data-name="Group 2406" transform="translate(0)">
                <path id="Path_10436-5" data-name="Path 10436" class="cls-13" d="M11.055,0A11.055,11.055,0,1,1,0,11.055,11.055,11.055,0,0,1,11.055,0Z"/>
              </g>
              <g id="baseline-check-24px_1_5" data-name="baseline-check-24px (1)" transform="translate(3.317 3.317)">
                <path id="Path_10658-5" data-name="Path 10658" class="cls-14" d="M0,0H15.478V15.478H0Z"/>
                <path id="Path_10659-5" data-name="Path 10659" class="cls-15" d="M7.015,12.413,4.326,9.724l-.916.909,3.605,3.605L14.754,6.5l-.909-.909Z" transform="translate(-1.211 -1.985)"/>
              </g>
            </g>
          </g>
          <g id="Group_3268" data-name="Group 3268" transform="translate(133.771 258.698)">
            <g id="Group_2417-6" data-name="Group 2417" transform="translate(0)">
              <g id="Group_2406-6" data-name="Group 2406" transform="translate(0)">
                <path id="Path_10436-6" data-name="Path 10436" class="cls-13" d="M11.055,0A11.055,11.055,0,1,1,0,11.055,11.055,11.055,0,0,1,11.055,0Z"/>
              </g>
              <g id="baseline-check-24px_1_6" data-name="baseline-check-24px (1)" transform="translate(3.317 3.317)">
                <path id="Path_10658-6" data-name="Path 10658" class="cls-14" d="M0,0H15.478V15.478H0Z"/>
                <path id="Path_10659-6" data-name="Path 10659" class="cls-15" d="M7.015,12.413,4.326,9.724l-.916.909,3.605,3.605L14.754,6.5l-.909-.909Z" transform="translate(-1.211 -1.985)"/>
              </g>
            </g>
          </g>
          <g id="Group_3269" data-name="Group 3269" transform="translate(756.194 258.698)">
            <g id="Group_2417-7" data-name="Group 2417" transform="translate(0)">
              <g id="Group_2406-7" data-name="Group 2406" transform="translate(0)">
                <path id="Path_10436-7" data-name="Path 10436" class="cls-13" d="M11.055,0A11.055,11.055,0,1,1,0,11.055,11.055,11.055,0,0,1,11.055,0Z"/>
              </g>
              <g id="baseline-check-24px_1_7" data-name="baseline-check-24px (1)" transform="translate(3.317 3.317)">
                <path id="Path_10658-7" data-name="Path 10658" class="cls-14" d="M0,0H15.478V15.478H0Z"/>
                <path id="Path_10659-7" data-name="Path 10659" class="cls-15" d="M7.015,12.413,4.326,9.724l-.916.909,3.605,3.605L14.754,6.5l-.909-.909Z" transform="translate(-1.211 -1.985)"/>
              </g>
            </g>
          </g>
        </g>
      </g>
    </g>
  </g>
</svg>
