<svg xmlns="http://www.w3.org/2000/svg" xmlns:xlink="http://www.w3.org/1999/xlink" viewBox="0 0 1760 707">
  <defs>
    <style>
      .cls-1 {
        fill: #efefef;
        opacity: 0.5;
      }

      .cls-11, .cls-2, .cls-9 {
        fill: #181a1e;
      }

      .cls-2 {
        font-size: 32px;
        font-family: OpenSans-Light, Open Sans;
        font-weight: 300;
      }

      .cls-14, .cls-3 {
        fill: #fff;
      }

      .cls-4, .cls-6 {
        fill: none;
      }

      .cls-5, .cls-7 {
        fill: #9ea3ad;
      }

      .cls-5, .cls-9 {
        font-size: 14px;
        font-family: OpenSans, Open Sans;
      }

      .cls-6 {
        stroke: #dee0e4;
      }

      .cls-8 {
        fill: #dee0e4;
      }

      .cls-10 {
        fill: #ffd100;
      }

      .cls-12 {
        fill: url(#linear-gradient);
      }

      .cls-13 {
        fill: #ff5340;
      }

      .cls-14 {
        font-size: 12px;
        font-family: OpenSans-Bold, Open Sans;
        font-weight: 700;
      }

      .cls-15 {
        filter: url(#Path_11127);
      }

      .cls-16 {
        filter: url(#Path_11116);
      }

      .cls-17 {
        filter: url(#Path_11105);
      }

      .cls-18 {
        filter: url(#Path_11094);
      }

      .cls-19 {
        filter: url(#Path_11083);
      }

      .cls-20 {
        filter: url(#Path_11072);
      }
    </style>
    <filter id="Path_11072" x="10" y="107" width="1740" height="120" filterUnits="userSpaceOnUse">
      <feOffset dy="5" input="SourceAlpha"/>
      <feGaussianBlur stdDeviation="10" result="blur"/>
      <feFlood flood-opacity="0.051"/>
      <feComposite operator="in" in2="blur"/>
      <feComposite in="SourceGraphic"/>
    </filter>
    <filter id="Path_11083" x="10" y="464" width="1740" height="120" filterUnits="userSpaceOnUse">
      <feOffset dy="5" input="SourceAlpha"/>
      <feGaussianBlur stdDeviation="10" result="blur-2"/>
      <feFlood flood-opacity="0.051"/>
      <feComposite operator="in" in2="blur-2"/>
      <feComposite in="SourceGraphic"/>
    </filter>
    <filter id="Path_11094" x="10" y="226" width="1738" height="120" filterUnits="userSpaceOnUse">
      <feOffset dy="5" input="SourceAlpha"/>
      <feGaussianBlur stdDeviation="10" result="blur-3"/>
      <feFlood flood-opacity="0.051"/>
      <feComposite operator="in" in2="blur-3"/>
      <feComposite in="SourceGraphic"/>
    </filter>
    <filter id="Path_11105" x="10" y="345" width="1738" height="120" filterUnits="userSpaceOnUse">
      <feOffset dy="5" input="SourceAlpha"/>
      <feGaussianBlur stdDeviation="10" result="blur-4"/>
      <feFlood flood-opacity="0.051"/>
      <feComposite operator="in" in2="blur-4"/>
      <feComposite in="SourceGraphic"/>
    </filter>
    <linearGradient id="linear-gradient" x1="0.5" x2="0.5" y2="1" gradientUnits="objectBoundingBox">
      <stop offset="0"/>
      <stop offset="1" stop-color="#3a3a3a"/>
    </linearGradient>
    <filter id="Path_11116" x="10" y="583" width="1740" height="120" filterUnits="userSpaceOnUse">
      <feOffset dy="5" input="SourceAlpha"/>
      <feGaussianBlur stdDeviation="10" result="blur-5"/>
      <feFlood flood-opacity="0.051"/>
      <feComposite operator="in" in2="blur-5"/>
      <feComposite in="SourceGraphic"/>
    </filter>
    <filter id="Path_11127" x="1675" y="617" width="38" height="38" filterUnits="userSpaceOnUse">
      <feOffset dy="3" input="SourceAlpha"/>
      <feGaussianBlur stdDeviation="3" result="blur-6"/>
      <feFlood flood-opacity="0.161"/>
      <feComposite operator="in" in2="blur-6"/>
      <feComposite in="SourceGraphic"/>
    </filter>
  </defs>
  <g id="Group_3287" data-name="Group 3287" transform="translate(0 -2538)">
    <g id="Group_3286" data-name="Group 3286">
      <g id="Group_3285" data-name="Group 3285">
        <g id="Group_3284" data-name="Group 3284">
          <g id="Group_3283" data-name="Group 3283">
            <path id="Path_11071" data-name="Path 11071" class="cls-1" d="M0,0H1760V707H0Z" transform="translate(0 2538)"/>
            <text id="Tabs" class="cls-2" transform="translate(40 2612)"><tspan x="0" y="0">Tabs</tspan></text>
            <g class="cls-20" transform="matrix(1, 0, 0, 1, 0, 2538)">
              <path id="Path_11072-2" data-name="Path 11072" class="cls-3" d="M0,0H1680V60H0Z" transform="translate(40 132)"/>
            </g>
            <path id="Path_11073" data-name="Path 11073" class="cls-4" d="M0,0H20V20H0Z" transform="translate(240 2685)"/>
            <text id="Informations" class="cls-5" transform="translate(1469 2706)"><tspan x="0" y="0">Informations</tspan></text>
            <line id="Line_102" data-name="Line 102" class="cls-6" y2="41" transform="translate(460 2680)"/>
            <path id="Path_11074" data-name="Path 11074" class="cls-4" d="M0,0H24V24H0Z" transform="translate(80 2689)"/>
            <path id="Path_11075" data-name="Path 11075" class="cls-7" d="M15.5,14h-.79l-.28-.27a6.51,6.51,0,1,0-.7.7l.27.28v.79l5,4.99L20.49,19Zm-6,0A4.5,4.5,0,1,1,14,9.5,4.494,4.494,0,0,1,9.5,14Z" transform="translate(80 2689)"/>
            <text id="Rechercher_dans_la_boutique" data-name="Rechercher dans la boutique" class="cls-5" transform="translate(114 2707)"><tspan x="0" y="0">Rechercher dans la boutique</tspan></text>
            <text id="FR" class="cls-5" transform="translate(1593 2705)"><tspan x="0" y="0">FR</tspan></text>
            <path id="Path_11076" data-name="Path 11076" class="cls-7" d="M7.175,8.59,11,12.407,14.825,8.59,16,9.765l-5,5-5-5Z" transform="translate(1613 2688.568)"/>
            <path id="Path_11077" data-name="Path 11077" class="cls-4" d="M0,0H20V20H0Z" transform="translate(1614 2690)"/>
            <text id="Réglement" class="cls-5" transform="translate(1359 2706)"><tspan x="0" y="0">Réglement</tspan></text>
            <path id="Path_11078" data-name="Path 11078" class="cls-4" d="M0,0H20V20H0Z" transform="translate(830 2685)"/>
            <line id="Line_103" data-name="Line 103" class="cls-6" y2="42" transform="translate(594 2680)"/>
            <text id="Catégories" class="cls-5" transform="translate(480 2705)"><tspan x="0" y="0">Catégories</tspan></text>
            <path id="Path_11079" data-name="Path 11079" class="cls-7" d="M7.175,8.59,11,12.407,14.825,8.59,16,9.765l-5,5-5-5Z" transform="translate(553 2688.568)"/>
            <path id="Path_11080" data-name="Path 11080" class="cls-4" d="M0,0H20V20H0Z" transform="translate(554 2690)"/>
            <rect id="Rectangle_9167" data-name="Rectangle 9167" class="cls-8" width="70" height="2" transform="translate(1359 2728)"/>
            <rect id="Rectangle_9168" data-name="Rectangle 9168" class="cls-8" width="84" height="2" transform="translate(1469 2728)"/>
            <path id="Path_11081" data-name="Path 11081" class="cls-7" d="M7,18a2,2,0,1,0,2,2A2,2,0,0,0,7,18ZM1,2V4H3l3.6,7.59L5.25,14.04A1.933,1.933,0,0,0,5,15a2.006,2.006,0,0,0,2,2H19V15H7.42a.248.248,0,0,1-.25-.25l.03-.12L8.1,13h7.45a1.991,1.991,0,0,0,1.75-1.03l3.58-6.49A.977.977,0,0,0,21,5a1,1,0,0,0-1-1H5.21L4.27,2H1ZM17,18a2,2,0,1,0,2,2A2,2,0,0,0,17,18Z" transform="translate(1674 2688)"/>
            <path id="Path_11082" data-name="Path 11082" class="cls-4" d="M0,0H24V24H0Z" transform="translate(1674 2688)"/>
            <g class="cls-19" transform="matrix(1, 0, 0, 1, 0, 2538)">
              <path id="Path_11083-2" data-name="Path 11083" class="cls-3" d="M0,0H1680V60H0Z" transform="translate(40 489)"/>
            </g>
            <path id="Path_11084" data-name="Path 11084" class="cls-4" d="M0,0H20V20H0Z" transform="translate(240 3042)"/>
            <text id="Informations-2" data-name="Informations" class="cls-5" transform="translate(1469 3063)"><tspan x="0" y="0">Informations</tspan></text>
            <line id="Line_104" data-name="Line 104" class="cls-6" y2="41" transform="translate(460 3037)"/>
            <path id="Path_11085" data-name="Path 11085" class="cls-4" d="M0,0H24V24H0Z" transform="translate(80 3046)"/>
            <path id="Path_11086" data-name="Path 11086" class="cls-7" d="M15.5,14h-.79l-.28-.27a6.51,6.51,0,1,0-.7.7l.27.28v.79l5,4.99L20.49,19Zm-6,0A4.5,4.5,0,1,1,14,9.5,4.494,4.494,0,0,1,9.5,14Z" transform="translate(80 3046)"/>
            <text id="Rechercher_dans_la_boutique-2" data-name="Rechercher dans la boutique" class="cls-5" transform="translate(114 3064)"><tspan x="0" y="0">Rechercher dans la boutique</tspan></text>
            <text id="FR-2" data-name="FR" class="cls-5" transform="translate(1593 3062)"><tspan x="0" y="0">FR</tspan></text>
            <path id="Path_11087" data-name="Path 11087" class="cls-7" d="M7.175,8.59,11,12.407,14.825,8.59,16,9.765l-5,5-5-5Z" transform="translate(1613 3045.568)"/>
            <path id="Path_11088" data-name="Path 11088" class="cls-4" d="M0,0H20V20H0Z" transform="translate(1614 3047)"/>
            <text id="Réglement-2" data-name="Réglement" class="cls-9" transform="translate(1359 3063)"><tspan x="0" y="0">Réglement</tspan></text>
            <path id="Path_11089" data-name="Path 11089" class="cls-4" d="M0,0H20V20H0Z" transform="translate(1294 3042)"/>
            <line id="Line_105" data-name="Line 105" class="cls-6" y2="42" transform="translate(594 3037)"/>
            <text id="Catégories-2" data-name="Catégories" class="cls-5" transform="translate(480 3062)"><tspan x="0" y="0">Catégories</tspan></text>
            <path id="Path_11090" data-name="Path 11090" class="cls-7" d="M7.175,8.59,11,12.407,14.825,8.59,16,9.765l-5,5-5-5Z" transform="translate(553 3045.568)"/>
            <path id="Path_11091" data-name="Path 11091" class="cls-4" d="M0,0H20V20H0Z" transform="translate(554 3047)"/>
            <rect id="Rectangle_9169" data-name="Rectangle 9169" class="cls-10" width="70" height="2" transform="translate(1359 3085)"/>
            <rect id="Rectangle_9170" data-name="Rectangle 9170" class="cls-8" width="84" height="2" transform="translate(1469 3085)"/>
            <path id="Path_11092" data-name="Path 11092" class="cls-7" d="M7,18a2,2,0,1,0,2,2A2,2,0,0,0,7,18ZM1,2V4H3l3.6,7.59L5.25,14.04A1.933,1.933,0,0,0,5,15a2.006,2.006,0,0,0,2,2H19V15H7.42a.248.248,0,0,1-.25-.25l.03-.12L8.1,13h7.45a1.991,1.991,0,0,0,1.75-1.03l3.58-6.49A.977.977,0,0,0,21,5a1,1,0,0,0-1-1H5.21L4.27,2H1ZM17,18a2,2,0,1,0,2,2A2,2,0,0,0,17,18Z" transform="translate(1674 3045)"/>
            <path id="Path_11093" data-name="Path 11093" class="cls-4" d="M0,0H24V24H0Z" transform="translate(1674 3045)"/>
            <g class="cls-18" transform="matrix(1, 0, 0, 1, 0, 2538)">
              <path id="Path_11094-2" data-name="Path 11094" class="cls-3" d="M0,0H1678V60H0Z" transform="translate(40 251)"/>
            </g>
            <path id="Path_11095" data-name="Path 11095" class="cls-4" d="M0,0H20V20H0Z" transform="translate(240 2804)"/>
            <text id="Informations-3" data-name="Informations" class="cls-5" transform="translate(1469 2825)"><tspan x="0" y="0">Informations</tspan></text>
            <line id="Line_106" data-name="Line 106" class="cls-6" y2="41" transform="translate(460 2799)"/>
            <path id="Path_11096" data-name="Path 11096" class="cls-4" d="M0,0H24V24H0Z" transform="translate(80 2808)"/>
            <path id="Path_11097" data-name="Path 11097" class="cls-11" d="M15.5,14h-.79l-.28-.27a6.51,6.51,0,1,0-.7.7l.27.28v.79l5,4.99L20.49,19Zm-6,0A4.5,4.5,0,1,1,14,9.5,4.494,4.494,0,0,1,9.5,14Z" transform="translate(80 2808)"/>
            <text id="Machi" class="cls-9" transform="translate(114 2826)"><tspan x="0" y="0">Machi</tspan></text>
            <text id="FR-3" data-name="FR" class="cls-5" transform="translate(1593 2824)"><tspan x="0" y="0">FR</tspan></text>
            <path id="Path_11098" data-name="Path 11098" class="cls-7" d="M7.175,8.59,11,12.407,14.825,8.59,16,9.765l-5,5-5-5Z" transform="translate(1613 2807.568)"/>
            <path id="Path_11099" data-name="Path 11099" class="cls-4" d="M0,0H20V20H0Z" transform="translate(1614 2809)"/>
            <text id="Réglement-3" data-name="Réglement" class="cls-5" transform="translate(1359 2825)"><tspan x="0" y="0">Réglement</tspan></text>
            <path id="Path_11100" data-name="Path 11100" class="cls-4" d="M0,0H20V20H0Z" transform="translate(830 2804)"/>
            <line id="Line_107" data-name="Line 107" class="cls-6" y2="42" transform="translate(594 2799)"/>
            <text id="Catégories-3" data-name="Catégories" class="cls-5" transform="translate(480 2824)"><tspan x="0" y="0">Catégories</tspan></text>
            <path id="Path_11101" data-name="Path 11101" class="cls-7" d="M7.175,8.59,11,12.407,14.825,8.59,16,9.765l-5,5-5-5Z" transform="translate(553 2807.568)"/>
            <path id="Path_11102" data-name="Path 11102" class="cls-4" d="M0,0H20V20H0Z" transform="translate(554 2809)"/>
            <rect id="Rectangle_9171" data-name="Rectangle 9171" class="cls-8" width="70" height="2" transform="translate(1359 2847)"/>
            <rect id="Rectangle_9172" data-name="Rectangle 9172" class="cls-8" width="84" height="2" transform="translate(1469 2847)"/>
            <path id="Path_11103" data-name="Path 11103" class="cls-7" d="M7,18a2,2,0,1,0,2,2A2,2,0,0,0,7,18ZM1,2V4H3l3.6,7.59L5.25,14.04A1.933,1.933,0,0,0,5,15a2.006,2.006,0,0,0,2,2H19V15H7.42a.248.248,0,0,1-.25-.25l.03-.12L8.1,13h7.45a1.991,1.991,0,0,0,1.75-1.03l3.58-6.49A.977.977,0,0,0,21,5a1,1,0,0,0-1-1H5.21L4.27,2H1ZM17,18a2,2,0,1,0,2,2A2,2,0,0,0,17,18Z" transform="translate(1674 2807)"/>
            <path id="Path_11104" data-name="Path 11104" class="cls-4" d="M0,0H24V24H0Z" transform="translate(1674 2807)"/>
            <g class="cls-17" transform="matrix(1, 0, 0, 1, 0, 2538)">
              <path id="Path_11105-2" data-name="Path 11105" class="cls-3" d="M0,0H1678V60H0Z" transform="translate(40 370)"/>
            </g>
            <path id="Path_11106" data-name="Path 11106" class="cls-4" d="M0,0H20V20H0Z" transform="translate(240 2923)"/>
            <text id="Informations-4" data-name="Informations" class="cls-5" transform="translate(1469 2944)"><tspan x="0" y="0">Informations</tspan></text>
            <line id="Line_108" data-name="Line 108" class="cls-6" y2="41" transform="translate(460 2918)"/>
            <path id="Path_11107" data-name="Path 11107" class="cls-4" d="M0,0H24V24H0Z" transform="translate(80 2927)"/>
            <path id="Path_11108" data-name="Path 11108" class="cls-7" d="M15.5,14h-.79l-.28-.27a6.51,6.51,0,1,0-.7.7l.27.28v.79l5,4.99L20.49,19Zm-6,0A4.5,4.5,0,1,1,14,9.5,4.494,4.494,0,0,1,9.5,14Z" transform="translate(80 2927)"/>
            <text id="Rechercher_dans_la_boutique-3" data-name="Rechercher dans la boutique" class="cls-5" transform="translate(114 2945)"><tspan x="0" y="0">Rechercher dans la boutique</tspan></text>
            <text id="FR-4" data-name="FR" class="cls-5" transform="translate(1593 2943)"><tspan x="0" y="0">FR</tspan></text>
            <path id="Path_11109" data-name="Path 11109" class="cls-7" d="M7.175,8.59,11,12.407,14.825,8.59,16,9.765l-5,5-5-5Z" transform="translate(1613 2926.568)"/>
            <path id="Path_11110" data-name="Path 11110" class="cls-4" d="M0,0H20V20H0Z" transform="translate(1614 2928)"/>
            <text id="Réglement-4" data-name="Réglement" class="cls-5" transform="translate(1359 2944)"><tspan x="0" y="0">Réglement</tspan></text>
            <path id="Path_11111" data-name="Path 11111" class="cls-4" d="M0,0H20V20H0Z" transform="translate(830 2923)"/>
            <line id="Line_109" data-name="Line 109" class="cls-6" y2="42" transform="translate(594 2918)"/>
            <text id="Catégories-4" data-name="Catégories" class="cls-9" transform="translate(480 2943)"><tspan x="0" y="0">Catégories</tspan></text>
            <path id="Path_11112" data-name="Path 11112" class="cls-12" d="M7.175,8.59,11,12.407,14.825,8.59,16,9.765l-5,5-5-5Z" transform="translate(553 2926.568)"/>
            <path id="Path_11113" data-name="Path 11113" class="cls-4" d="M0,0H20V20H0Z" transform="translate(554 2928)"/>
            <rect id="Rectangle_9173" data-name="Rectangle 9173" class="cls-8" width="70" height="2" transform="translate(1359 2966)"/>
            <rect id="Rectangle_9174" data-name="Rectangle 9174" class="cls-8" width="84" height="2" transform="translate(1469 2966)"/>
            <path id="Path_11114" data-name="Path 11114" class="cls-7" d="M7,18a2,2,0,1,0,2,2A2,2,0,0,0,7,18ZM1,2V4H3l3.6,7.59L5.25,14.04A1.933,1.933,0,0,0,5,15a2.006,2.006,0,0,0,2,2H19V15H7.42a.248.248,0,0,1-.25-.25l.03-.12L8.1,13h7.45a1.991,1.991,0,0,0,1.75-1.03l3.58-6.49A.977.977,0,0,0,21,5a1,1,0,0,0-1-1H5.21L4.27,2H1ZM17,18a2,2,0,1,0,2,2A2,2,0,0,0,17,18Z" transform="translate(1674 2926)"/>
            <path id="Path_11115" data-name="Path 11115" class="cls-4" d="M0,0H24V24H0Z" transform="translate(1674 2926)"/>
            <g class="cls-16" transform="matrix(1, 0, 0, 1, 0, 2538)">
              <path id="Path_11116-2" data-name="Path 11116" class="cls-3" d="M0,0H1680V60H0Z" transform="translate(40 608)"/>
            </g>
            <path id="Path_11117" data-name="Path 11117" class="cls-4" d="M0,0H20V20H0Z" transform="translate(240 3161)"/>
            <text id="Informations-5" data-name="Informations" class="cls-5" transform="translate(1469 3183)"><tspan x="0" y="0">Informations</tspan></text>
            <line id="Line_110" data-name="Line 110" class="cls-6" y2="41" transform="translate(460 3156)"/>
            <path id="Path_11118" data-name="Path 11118" class="cls-4" d="M0,0H24V24H0Z" transform="translate(80 3165)"/>
            <path id="Path_11119" data-name="Path 11119" class="cls-7" d="M15.5,14h-.79l-.28-.27a6.51,6.51,0,1,0-.7.7l.27.28v.79l5,4.99L20.49,19Zm-6,0A4.5,4.5,0,1,1,14,9.5,4.494,4.494,0,0,1,9.5,14Z" transform="translate(80 3165)"/>
            <text id="Rechercher_dans_la_boutique-4" data-name="Rechercher dans la boutique" class="cls-5" transform="translate(114 3183)"><tspan x="0" y="0">Rechercher dans la boutique</tspan></text>
            <text id="FR-5" data-name="FR" class="cls-5" transform="translate(1593 3182)"><tspan x="0" y="0">FR</tspan></text>
            <path id="Path_11120" data-name="Path 11120" class="cls-7" d="M7.175,8.59,11,12.407,14.825,8.59,16,9.765l-5,5-5-5Z" transform="translate(1613 3165.568)"/>
            <path id="Path_11121" data-name="Path 11121" class="cls-4" d="M0,0H20V20H0Z" transform="translate(1614 3167)"/>
            <text id="Réglement-5" data-name="Réglement" class="cls-5" transform="translate(1359 3183)"><tspan x="0" y="0">Réglement</tspan></text>
            <path id="Path_11122" data-name="Path 11122" class="cls-4" d="M0,0H20V20H0Z" transform="translate(830 3161)"/>
            <line id="Line_111" data-name="Line 111" class="cls-6" y2="42" transform="translate(594 3156)"/>
            <text id="Catégories-5" data-name="Catégories" class="cls-5" transform="translate(480 3181)"><tspan x="0" y="0">Catégories</tspan></text>
            <path id="Path_11123" data-name="Path 11123" class="cls-7" d="M7.175,8.59,11,12.407,14.825,8.59,16,9.765l-5,5-5-5Z" transform="translate(553 3164.568)"/>
            <path id="Path_11124" data-name="Path 11124" class="cls-4" d="M0,0H20V20H0Z" transform="translate(554 3166)"/>
            <rect id="Rectangle_9175" data-name="Rectangle 9175" class="cls-8" width="70" height="2" transform="translate(1359 3205)"/>
            <rect id="Rectangle_9176" data-name="Rectangle 9176" class="cls-8" width="84" height="2" transform="translate(1469 3205)"/>
            <path id="Path_11125" data-name="Path 11125" class="cls-11" d="M7,18a2,2,0,1,0,2,2A2,2,0,0,0,7,18ZM1,2V4H3l3.6,7.59L5.25,14.04A1.933,1.933,0,0,0,5,15a2.006,2.006,0,0,0,2,2H19V15H7.42a.248.248,0,0,1-.25-.25l.03-.12L8.1,13h7.45a1.991,1.991,0,0,0,1.75-1.03l3.58-6.49A.977.977,0,0,0,21,5a1,1,0,0,0-1-1H5.21L4.27,2H1ZM17,18a2,2,0,1,0,2,2A2,2,0,0,0,17,18Z" transform="translate(1674 3165)"/>
            <path id="Path_11126" data-name="Path 11126" class="cls-4" d="M0,0H24V24H0Z" transform="translate(1674 3169)"/>
            <g class="cls-15" transform="matrix(1, 0, 0, 1, 0, 2538)">
              <path id="Path_11127-2" data-name="Path 11127" class="cls-13" d="M10,0A10,10,0,1,1,0,10,10,10,0,0,1,10,0Z" transform="translate(1684 623)"/>
            </g>
            <text id="_1" data-name="1" class="cls-14" transform="translate(1690 3175)"><tspan x="0" y="0">1</tspan></text>
            <text id="Article_in_the_shopping_cart" data-name="Article in the shopping cart" class="cls-9" transform="translate(40 3132)"><tspan x="0" y="0">Article in the shopping cart</tspan></text>
            <text id=":hover_:active_article_page_link" data-name=":hover / :active article page link" class="cls-9" transform="translate(40 3013)"><tspan x="0" y="0">:hover / :active article page link</tspan></text>
            <text id=":hover_:active_categories_selector" data-name=":hover / :active categories selector" class="cls-9" transform="translate(40 2894)"><tspan x="0" y="0">:hover / :active categories selector</tspan></text>
            <text id=":focus_search_bar" data-name=":focus search bar" class="cls-9" transform="translate(40 2775)"><tspan x="0" y="0">:focus search bar</tspan></text>
            <text id="Header_bar_-_default_display_-_fixed_position" data-name="Header bar - default display - fixed position" class="cls-9" transform="translate(40 2656)"><tspan x="0" y="0">Header bar - default display - fixed position</tspan></text>
          </g>
        </g>
      </g>
    </g>
  </g>
</svg>
