<?xml version="1.0" encoding="utf-8"?>
<!-- Generator: Adobe Illustrator 22.1.0, SVG Export Plug-In . SVG Version: 6.00 Build 0)  -->
<svg version="1.1" id="Layer_1" xmlns="http://www.w3.org/2000/svg" xmlns:xlink="http://www.w3.org/1999/xlink" x="0px" y="0px"
	 viewBox="0 0 800 500" style="enable-background:new 0 0 800 500;" xml:space="preserve">
<style type="text/css">
	.st0{fill:#FFFFFF;}
	.st1{enable-background:new    ;}
	.st2{fill:#353535;}
</style>
<title>card-red</title>
<rect class="st0" width="800" height="500"/>
<g class="st1">
	<path class="st2" d="M82.2,178.2h49.1v10c0,8.8,3,13.1,9,13.1c0.8,0,1.6-0.1,2.5-0.3c3.2-0.7,5.3-2.1,6-4.2c0.8-2.2,1.2-5.5,1.2-10
		c0-4.6-2.4-8.3-7.3-10.8c-4.8-2.6-11.7-5-20.6-7.1c-8.9-2.2-14.5-3.8-16.9-4.9c-6.7-2.7-11.9-6.2-15.6-10.6
		c-3.6-4.4-6-9.3-7.2-14.6s-1.8-11.2-1.8-17.6c0-6.9,1.1-13.1,3.3-18.6c2.2-5.5,5.5-10.1,9.9-13.9s9.9-6.7,16.7-8.8
		c6.8-2.1,14.6-3.1,23.4-3.1c1.9,0,3.4,0,4.4,0.1c5.9,0,11.5,0.4,16.7,1.2c5.3,0.8,10.2,1.9,14.9,3.3s9,3.1,12.9,4.9
		s7.8,3.9,11.8,6.3v37.1h-46.2V121c0-3.8-0.8-6.6-2.5-8.4c-1.7-1.9-3.7-2.8-6-2.8c-2,0-3.9,0.7-5.7,2c-1.7,1.3-2.8,3-3.2,5
		c-0.2,1-0.3,1.8-0.3,2.7c0,4.5,1.8,7.9,5.5,10.3c3.6,2.4,8.2,4.2,13.7,5.4s10.3,2.2,14.3,3.1c8.7,2.1,15.8,5.3,21.1,9.6
		c5.4,4.3,9.3,9.5,11.8,15.4s3.7,12.5,3.7,19.8c0,7.1-1.2,14.5-3.5,22.3c-2.7,8.9-7.2,15.5-13.4,19.9c-6.3,4.4-13.1,7.3-20.5,8.6
		s-16.3,2.3-26.6,2.9c-4.6,0-10.9-0.7-18.7-2.1s-15.3-3.5-22.3-6.3s-11.6-6.2-13.8-10.1v-40.1H82.2z"/>
	<path class="st2" d="M279.9,135.3v-17.1c0-2.9-0.8-5.1-2.4-6.8c-1.6-1.7-3.5-2.5-5.6-2.5c-2.5,0-4.6,1.1-6.5,3.2s-2.8,5.1-2.8,9
		v71.4c0,3.3,0.9,5.9,2.8,7.8c1.9,1.9,4,2.9,6.5,2.9c2.2,0,4.1-0.9,5.7-2.7s2.3-4.5,2.3-8v-24.3H329v50c-3.4,5.4-10.6,9.6-21.6,12.6
		s-23,4.5-36.1,4.5c-17.9,0-32.2-3.8-43-11.4c-10.8-7.6-16.2-19.5-16.2-35.8v-64.3c0-8.2,1.1-15.4,3.3-21.5s5.5-11.2,9.9-15.2
		s10-7,16.6-9c6.7-2,14.5-2.9,23.5-2.9c13.2,0,24.7,1.2,34.7,3.6c9.9,2.4,19.6,6.4,28.8,12.1v44.3h-49V135.3z"/>
	<path class="st2" d="M340.5,186.8v-64.3c0-7.9,1.2-14.8,3.7-20.7c2.4-5.9,6.1-10.8,11-14.7c4.9-3.9,11.2-6.8,18.8-8.8
		c7.6-2,16.7-2.9,27.1-2.9c13.7,0,24.8,1.6,33.4,4.8s14.7,8.2,18.6,14.8c3.8,6.7,5.8,15.4,5.8,26.1v70c0,10.2-1.8,18.7-5.5,25.4
		s-9.8,11.8-18.2,15.2s-19.8,5.1-34,5.1s-25.9-1.9-34.8-5.6c-9-3.8-15.5-9.3-19.6-16.7C342.6,207.1,340.5,197.9,340.5,186.8z
		 M409.8,188.2v-65.7c0-3.5-0.2-6-0.5-7.7s-1-2.9-2.2-3.8s-3.2-1.3-6-1.3c-3.5,0-6.1,1.1-7.7,3.2s-2.4,5.3-2.4,9.7v65.7
		c0,4.3,0.7,7.7,2.1,10.4c1.4,2.6,4.1,3.9,8,3.9c3.4,0,5.7-1.2,6.9-3.6C409.2,196.5,409.8,192.9,409.8,188.2z"/>
	<path class="st2" d="M471.7,78.2h73.6c6,0,12,0.8,18,2.4s11.4,4.1,16.3,7.5c4.9,3.4,8.8,7.9,11.8,13.4c3,5.6,4.5,12.1,4.5,19.5
		v25.7c0,28.6-15.9,42.9-47.6,42.9H528c0,1.8,0,3.2,0,4.2c0,0.9-0.1,2-0.1,3.1c0,2.2,0.3,3.9,0.9,5.2c0.6,1.3,1.8,2.4,3.7,3.3V234
		h-60.6v-28.6c2.4-1,4-2.4,4.7-4.2c0.8-1.8,1.1-4.1,1.1-7c0-1.3,0-2.4,0-3.2s0-1.8,0-2.8v-64.3c0-1,0-1.9,0-2.7c0-0.8,0-1.8,0-3
		c0-2.6-0.4-4.6-1.2-6.2c-0.8-1.6-2.3-2.9-4.7-3.8v-30H471.7z M528,112.5v44.3c2,0.2,3.5,0.4,4.5,0.4c8.5,0,12.8-4.4,12.8-13.2
		v-17.1c0-5.6-1.2-9.4-3.7-11.3C539.2,113.4,534.6,112.5,528,112.5z"/>
	<path class="st2" d="M603.1,78.2h118.3v54.3h-46.2v-10c0-3.4-1.2-6-3.7-7.7c-2.5-1.8-5.6-2.6-9.4-2.6c-1.5,0-2.9,0.1-4.1,0.4V141
		h31.7v30H658v30c0.9,0.1,2.2,0.2,3.8,0.2c4.6,0,8-1.1,10.2-3.2c2.2-2.1,3.3-4.9,3.3-8.4v-11.4h46.2v55.7H603.1v-28.6
		c3-1.4,4.5-4.3,4.5-8.7c0-1.2,0-2.3,0-3c0-0.8-0.1-1.6-0.1-2.6v-72.9c0-5.7-1.4-10-4.3-12.9v-27H603.1z"/>
</g>
<g class="st1">
	<path class="st2" d="M148.6,318.2v-17.1c0-2.9-0.8-5.1-2.4-6.8c-1.6-1.7-3.5-2.5-5.6-2.5c-2.5,0-4.6,1.1-6.5,3.2s-2.8,5.1-2.8,9
		v71.4c0,3.3,0.9,5.9,2.8,7.8c1.9,1.9,4,2.9,6.5,2.9c2.2,0,4.1-0.9,5.7-2.7c1.6-1.8,2.3-4.5,2.3-8v-24.3h49.1v50
		c-3.4,5.4-10.6,9.6-21.6,12.6s-23,4.5-36.1,4.5c-17.9,0-32.2-3.8-43-11.4S80.8,387.3,80.8,371v-64.3c0-8.2,1.1-15.4,3.3-21.5
		c2.2-6.1,5.5-11.2,9.9-15.2s10-7,16.6-9s14.5-2.9,23.5-2.9c13.2,0,24.7,1.2,34.7,3.6c9.9,2.4,19.6,6.4,28.8,12.1v44.3h-49V318.2z"
		/>
	<path class="st2" d="M301.5,261.1L323.1,374c1.6,7.7,4.4,12.9,8.7,15.7v27.1h-62v-27.1c2.6-1.9,4.2-3.9,4.8-5.9
		c0.6-2,0.9-4.8,0.9-8.4H251c0,2.4,0.1,4.4,0.3,5.8s0.7,2.9,1.6,4.3c0.9,1.5,2.2,2.8,3.9,4.2v27.1h-53.4v-28.6
		c2.2-2.2,3.8-4.3,4.7-6.3s1.8-5.1,2.5-9.4l20.2-111.4L301.5,261.1L301.5,261.1z M269.8,345.4l-7.2-45.7l-7.2,45.7H269.8z"/>
	<path class="st2" d="M340.5,361.1h49.1v10c0,8.8,3,13.1,9,13.1c0.8,0,1.6-0.1,2.5-0.3c3.2-0.7,5.3-2.1,6-4.2
		c0.8-2.2,1.2-5.5,1.2-10c0-4.6-2.4-8.3-7.3-10.8c-4.8-2.6-11.7-5-20.6-7.1c-8.9-2.2-14.5-3.8-16.9-4.9c-6.7-2.7-11.9-6.2-15.6-10.6
		c-3.6-4.4-6-9.3-7.2-14.6c-1.2-5.3-1.8-11.2-1.8-17.6c0-6.9,1.1-13.1,3.3-18.6c2.2-5.5,5.5-10.1,9.9-13.9s9.9-6.7,16.7-8.8
		c6.8-2.1,14.6-3.1,23.4-3.1c1.9,0,3.4,0,4.4,0.1c5.9,0,11.5,0.4,16.7,1.2c5.3,0.8,10.2,1.9,14.9,3.3c4.7,1.4,9,3.1,12.8,4.9
		c3.9,1.8,7.8,3.9,11.8,6.2v37.1h-46.2v-8.6c0-3.8-0.8-6.6-2.5-8.4c-1.7-1.9-3.7-2.8-6-2.8c-2,0-3.9,0.7-5.7,2c-1.7,1.3-2.8,3-3.2,5
		c-0.2,1-0.3,1.8-0.3,2.7c0,4.5,1.8,7.9,5.5,10.3c3.6,2.4,8.2,4.2,13.7,5.4c5.5,1.2,10.3,2.2,14.3,3.1c8.7,2.1,15.8,5.3,21.1,9.6
		c5.4,4.3,9.3,9.5,11.8,15.4s3.7,12.5,3.7,19.8c0,7.1-1.2,14.5-3.5,22.3c-2.7,8.9-7.2,15.5-13.4,19.9c-6.3,4.4-13.1,7.3-20.5,8.6
		c-7.4,1.3-16.3,2.3-26.6,2.9c-4.6,0-10.9-0.7-18.7-2.1c-7.8-1.4-15.3-3.5-22.3-6.3s-11.6-6.2-13.8-10.1v-40.1H340.5z"/>
	<path class="st2" d="M466,261.1h135.6v70h-36.1V304c0-2.1-0.4-3.9-1.2-5.4s-2.8-2.5-6-3.2v77.1c0,9.2,1.9,14.5,5.8,15.7v28.6h-60.6
		v-27.1c3.9-1.5,5.9-5.8,5.9-12.9c0-1.4,0-2.5,0-3.3c0-0.7,0-1.6,0-2.5v-75.7c-3.2,0-5.2,0.9-6,2.7c-0.8,1.8-1.2,4.2-1.2,7.3V331
		H466V261.1z"/>
</g>
</svg>
